<svg width="192.756" height="192.756" xmlns="http://www.w3.org/2000/svg" xmlns:svg="http://www.w3.org/2000/svg">

 <g class="layer">
  <title>Layer 1</title>
  <path d="m75.357064,13.723436l54.832853,0l0,9.695109l-22.146768,0l2.960258,-4.016408l-35.40924,0l-0.237102,-5.678701zm-16.935211,13.156962l90.123542,0l0,9.693737l-36.120547,0l2.961432,-4.015035l-56.727324,0l-0.237102,-5.678701zm-22.146768,13.019696l132.166953,0l0,9.693737l-51.516941,0l2.961432,-4.016408l-83.374341,0l-0.237102,-5.677329zm-18.355478,13.155589l156.445294,0l-0.710133,8.72601s-45.358149,0 -58.74152,23.821171l-96.993641,-32.547181zm1.301715,7.618272s159.16845,42.102279 118.902133,51.657376l-72.12137,-25.343452c41.566859,2.770031 -46.780763,-26.313924 -46.780763,-26.313924zm127.666703,110.65712l0,-32.544435c0,-5.26553 -2.959084,-5.81734 -7.814987,-5.81734l0,-1.386388l20.960082,0c15.04074,0 30.910165,2.492754 30.910165,23.543893s-16.699283,23.405254 -30.910165,23.405254l-13.145095,0l0,-7.200983zm7.934712,-1.385016c0,5.125519 0.710133,5.957352 5.210383,5.957352c15.513771,0 21.909666,-6.509162 21.909666,-20.775234c0,-13.018323 -4.738526,-20.775234 -21.909666,-20.775234c-4.50025,0 -5.210383,0.415916 -5.210383,5.954606l0,29.638511zm-103.151259,-31.15942l0,23.541148c0,9.693737 -1.77592,17.034731 -20.606776,17.034731c-18.59258,0 -21.435461,-7.062344 -21.435461,-17.034731l0,-23.541148c0,-5.26553 -2.960258,-5.81734 -7.816161,-5.81734l0,-1.386388l15.632322,0l0,1.386388s0.118551,0.55181 0.118551,5.81734l0,23.541148c0,7.200983 2.250125,14.266073 13.856402,14.266073c13.027718,0 15.039566,-5.954606 15.039566,-14.266073l0,-23.541148c0,-5.26553 -2.959084,-5.81734 -7.816161,-5.81734l0,-1.386388l13.146269,0l-0.118551,7.203728zm34.580556,37.392676c-19.659541,0 -22.265319,-14.126061 -22.265319,-23.267988c0,-7.200983 1.184338,-19.248835 15.752047,-19.248835c11.132073,0 14.802464,6.370523 15.869425,10.249665l2.251299,0l-0.712481,-11.080125c-4.026045,-0.83046 -10.183663,-1.938198 -17.289691,-1.938198c-19.303887,0 -24.751372,9.555098 -24.751372,22.573421c0,15.096533 8.644846,25.898008 26.645844,25.898008c5.210383,0 9.474704,-0.415916 13.145095,-1.246377l0,-2.90867c-2.011849,0.413171 -4.736178,0.969099 -8.644846,0.969099zm41.213553,-22.989338c-8.289192,-3.600492 -19.54099,-5.541435 -19.54099,-11.911958c0,-4.570963 5.566036,-7.6169 11.961931,-7.6169c10.066286,0 13.856402,4.292313 14.683913,8.032816l2.371023,0l-0.59393,-9.693737c-4.261973,-0.554555 -8.289192,-1.107738 -14.683913,-1.107738c-11.961931,0 -21.318083,3.46048 -21.318083,11.909213c0,4.570963 2.013022,7.063717 6.157618,9.417832c8.883122,4.98688 24.516618,7.340995 24.516618,14.956522c0,4.98688 -5.330108,9.003288 -13.739025,9.003288c-0.827511,0 -1.657369,-0.140011 -2.487227,-0.140011c-2.48488,0.140011 -8.050916,-0.55181 -12.434962,-1.246377l0,3.463225c3.317085,0.415916 9.120224,1.107738 14.210882,1.107738c12.909166,0 23.331106,-4.292313 23.331106,-13.295601c0,-6.6478 -4.972107,-9.555098 -12.434962,-12.878312z" fill="#00007f" id="svg_3"/>
 </g>
</svg>