<svg xmlns="http://www.w3.org/2000/svg" viewBox="0 0 514.89 459.12"><defs><style>.cls-1{fill:#b3b3b3;}.cls-2{fill:#22a;stroke:#22a;stroke-miterlimit:10;stroke-width:10px;}</style></defs><title>ucsd-to-calendar</title><g id="Calendar"><path class="cls-1" d="M325.1,161H312.47V148.84c0-15.36-13.77-27.84-30.72-27.84S251,133.48,251,148.84V161H219.5V148.84c0-15.36-13.77-27.84-30.72-27.84s-30.72,12.48-30.72,27.84V161H126.53V148.84c0-15.36-13.77-27.84-30.72-27.84s-30.72,12.48-30.72,27.84V161H49C22,161,.06,180.27.06,204V447C.06,470.69,22,490,49,490H325.1c27,0,48.9-19.31,48.9-43V204C374,180.28,352.06,161,325.1,161Zm-56.82-12.13c0-7,6-12.66,13.46-12.66s13.46,5.68,13.46,12.66v49.57c0,7-6,12.66-13.46,12.66s-13.46-5.68-13.46-12.66Zm-93,0c0-7,6-12.66,13.46-12.66s13.46,5.68,13.46,12.66v49.57c0,7-6,12.66-13.46,12.66s-13.46-5.68-13.46-12.66Zm-93,0c0-7,6-12.66,13.46-12.66s13.46,5.68,13.46,12.66v49.57c0,7-6,12.66-13.46,12.66s-13.46-5.68-13.46-12.66ZM345.24,447c0,9.77-9,17.72-20.14,17.72H49c-11.1,0-20.14-7.95-20.14-17.72V224.25H345.24Z" transform="translate(9.51 -30.88)"/><rect class="cls-1" x="64.23" y="238.2" width="52.87" height="41.4"/><rect class="cls-1" x="134.79" y="238.2" width="52.88" height="41.4"/><rect class="cls-1" x="205.42" y="238.2" width="52.87" height="41.4"/><rect class="cls-1" x="275.98" y="238.2" width="52.88" height="41.4"/><rect class="cls-1" x="64.23" y="293.45" width="52.87" height="41.37"/><rect class="cls-1" x="134.79" y="293.45" width="52.88" height="41.37"/><rect class="cls-1" x="205.42" y="293.45" width="52.87" height="41.37"/><rect class="cls-1" x="275.98" y="293.45" width="52.88" height="41.37"/><rect class="cls-1" x="64.23" y="348.69" width="52.87" height="41.37"/><rect class="cls-1" x="134.79" y="348.69" width="52.88" height="41.37"/><rect class="cls-1" x="205.42" y="348.69" width="52.87" height="41.37"/><rect class="cls-1" x="275.98" y="348.69" width="52.88" height="41.37"/></g><g id="Geisel"><path id="svg_3" data-name="svg 3" class="cls-2" d="M195,35.88H363.9V68.46H295.67l9.12-13.86H195.69ZM142.79,82.1H420.45v33.45H309.17l9.12-13.86H143.52ZM74.55,131.9l407.2-3.51v33.45L323,165.35l9.12-13.86H75.28ZM18,180.65H500l-2.19,30.11s-139.75,0-181,82.2Zm4,42.08S512.4,368,388.34,401l-222.2-87.46C294.21,323.1,22,222.74,22,222.74Z" transform="translate(9.51 -30.88)"/></g></svg>