<?xml version="1.0" encoding="utf-8"?>
<!-- Generator: Adobe Illustrator 21.1.0, SVG Export Plug-In . SVG Version: 6.00 Build 0)  -->
<svg version="1.1" id="Layer_1" xmlns="http://www.w3.org/2000/svg" xmlns:xlink="http://www.w3.org/1999/xlink" x="0px" y="0px"
	 viewBox="0 0 500 500" style="enable-background:new 0 0 500 500;" xml:space="preserve">
<style type="text/css">
	.st0{fill:#BDC3C7;}
	.st1{fill:#F2F2F2;}
	.st2{fill:#E74C3C;}
	.st3{fill:#C0392B;}
	.st4{fill:#1B3493;}
	.st5{fill:#FFFFFF;}
</style>
<title>ucsd-to-calendar</title>
<g id="Layer_3">
	<path class="st0" d="M73.1,54c-28,0-50.7,47.3-50.7,37.6v319.5c0,65.5,22.7,88.3,50.7,88.3h354.7c28,0,50.7-22.8,50.7-88.3v-320
		c0,9.7-22.7-37-50.7-37L73.1,54L73.1,54z"/>
	<path class="st1" d="M22.4,143.1v261.2c0,65.6,22.7,62.7,50.7,62.7h354.7c28,0,50.7,2.9,50.7-62.7V167.5L22.4,143.1z"/>
	<path class="st2" d="M73.1,28.7c-28,0-50.6,22.7-50.7,50.7v38.4h456V79.3c0-28-22.7-50.6-50.7-50.7H73.1z"/>
	<path class="st3" d="M131.8,81.3c0,18.4-14.9,33.3-33.3,33.3S65.1,99.7,65.1,81.3S80.1,48,98.4,48l0,0
		C116.8,48,131.8,63,131.8,81.3z"/>
	<path class="st3" d="M436.3,81.3c0,18.4-14.9,33.3-33.3,33.3s-33.3-14.9-33.3-33.3S384.6,48,403,48l0,0
		C421.4,48,436.3,63,436.3,81.3z"/>
	<path class="st0" d="M98.4,0c-14,0-25.3,9.4-25.3,20.9v62.8c0,11.6,11.3,20.9,25.3,20.9s25.3-9.4,25.3-20.9V20.9
		C123.8,9.4,112.4,0,98.4,0z"/>
	<path class="st0" d="M403,0c-14,0-25.3,9.4-25.3,20.9v62.8c0,11.6,11.3,20.9,25.3,20.9s25.3-9.4,25.3-20.9V20.9
		C428.3,9.4,416.9,0,403,0z"/>
	<path class="st0" d="M73.1,252.7v50.7h50.7v-50.7H73.1z M149.1,252.7v50.7h50.7v-50.7H149.1z M225.1,252.7v50.7h50.7v-50.7H225.1z
		 M301.1,252.7v50.7h50.7v-50.7H301.1z M377.1,252.7v50.7h50.7v-50.7H377.1z"/>
	<path class="st0" d="M73.1,328.7v50.7h50.7v-50.7H73.1z M149.1,328.7v50.7h50.7v-50.7H149.1z M225.1,328.7v50.7h50.7v-50.7H225.1z
		 M301.1,328.7v50.7h50.7v-50.7H301.1z M377.1,328.7v50.7h50.7v-50.7H377.1z"/>
	<path class="st0" d="M73.1,404.7v50.7h50.7v-50.7H73.1z M149.1,404.7v50.7h50.7v-50.7H149.1z M225.1,404.7v50.7h50.7v-50.7H225.1z
		 M301.1,404.7v50.7h50.7v-50.7H301.1z M377.1,404.7v50.7h50.7v-50.7H377.1z"/>
	<rect x="22.4" y="117.7" class="st3" width="456" height="25.3"/>
</g>
<g id="Trident">
	<path class="st4" d="M33.8,457.8V456c1-0.5,2-1.2,2.8-1.9c23.8-25.1,47.5-50.3,71.2-75.5c0.7-0.9,1.3-1.9,1.8-2.9l-69.9-53.5
		L193.6,75c2.5,4.4,9,178,7.4,183.1l-39.3-26.4l-44.5,73.1l34.6,28.2c55.2-50.9,101.8-110,155.9-162l-28.3-31.1
		c1.9-0.8,2.9-1.3,4-1.7C338,117.4,392.4,96.7,446.9,76c5.3-2,10.5-4.3,15.7-6.4h4.6c-0.5,1.6-0.9,3.2-1.5,4.7
		c-17.5,45.3-35,90.5-52.5,135.7c-5.4,14.1-10.6,28.3-16.1,43.1l-29.7-23.9C310.5,278.4,257.6,331.8,202,382.7l25.9,34.7l73.4-45.4
		L274,332.5l183.6,7.1c-3.2,6.3-228.9,146.9-244.6,153l-49.1-72l-90.1,77c-7.4-6.8-14.5-12.9-21.1-19.5S40.1,464.7,33.8,457.8z
		 M223.1,472.5l188.4-116.3l-1-1.6l-195,105.1L223.1,472.5z M391.3,223.8c13.3-37.6,33-71.5,44.3-109l-57,97.5L391.3,223.8z
		 M184.1,229.7c-0.8-30.8,2-60.7-1.4-90.6c-1.4,6.5-2.3,12.9-3,19.4c-2.4,20.3-4.7,40.6-6.9,60.9c-0.2,1.4,0.1,3.7,1.1,4.3
		C176.8,226,180.1,227.6,184.1,229.7L184.1,229.7z"/>
	<path class="st5" d="M223.1,472.5l-7.6-12.9l195-105.1l1,1.6L223.1,472.5z"/>
	<path class="st5" d="M391.3,223.8l-12.7-11.5l57-97.5C424.3,152.3,404.6,186.3,391.3,223.8z"/>
	<path class="st5" d="M184.1,229.7c-3.9-2.2-7.3-3.8-10.3-5.9c-0.9-0.7-1.2-2.9-1.1-4.3c2.2-20.3,4.5-40.6,6.9-60.9
		c0.8-6.5,1.7-13,3-19.4C186.1,169,183.3,198.9,184.1,229.7z"/>
</g>
</svg>
