<svg xmlns="http://www.w3.org/2000/svg" viewBox="0 0 500 500"><defs><style>.cls-1{fill:#bdc3c7;}.cls-2{fill:#f2f2f2;}.cls-3{fill:#e74c3c;}.cls-4{fill:#c0392b;}.cls-5{fill:#1b3493;}.cls-6{fill:#fff;}</style></defs><title>ucsd-to-calendar</title><g id="Layer_3" data-name="Layer 3"><path class="cls-1" d="M72.67,55.33C44.68,55.33,22,102.64,22,92.9V412.41c0,65.47,22.68,88.27,50.67,88.27H427.33c28,0,50.67-22.8,50.67-88.27v-320c0,9.74-22.67-37-50.67-37H72.67Z" transform="translate(-22 -1.33)"/><path class="cls-2" d="M22,144.39V405.57c0,65.6,22.68,62.72,50.67,62.72H427.33c28,0,50.67,2.88,50.67-62.72V168.85Z" transform="translate(-22 -1.33)"/><path class="cls-3" d="M72.67,30A50.74,50.74,0,0,0,22,80.66v38.4H478V80.66A50.73,50.73,0,0,0,427.33,30H72.67Z" transform="translate(-22 -1.33)"/><path class="cls-4" d="M131.31,82.68A33.31,33.31,0,1,1,98,49.37,33.31,33.31,0,0,1,131.31,82.68Z" transform="translate(-22 -1.33)"/><path class="cls-4" d="M435.82,82.68a33.31,33.31,0,1,1-33.31-33.31A33.31,33.31,0,0,1,435.82,82.68Z" transform="translate(-22 -1.33)"/><path class="cls-1" d="M98,1.33c-14,0-25.33,9.37-25.33,20.93v62.8C72.67,96.62,84,106,98,106s25.33-9.37,25.33-20.93V22.27C123.33,10.7,112,1.33,98,1.33Z" transform="translate(-22 -1.33)"/><path class="cls-1" d="M402.51,1.33c-14,0-25.33,9.37-25.33,20.93v62.8c0,11.56,11.34,20.93,25.33,20.93s25.33-9.37,25.33-20.93V22.27C427.84,10.7,416.5,1.33,402.51,1.33Z" transform="translate(-22 -1.33)"/><path class="cls-1" d="M72.67,254v50.67h50.67V254Zm76,0v50.67h50.67V254Zm76,0v50.67h50.67V254Zm76,0v50.67h50.67V254Zm76,0v50.67h50.67V254Z" transform="translate(-22 -1.33)"/><path class="cls-1" d="M72.67,330v50.67h50.67V330Zm76,0v50.67h50.67V330Zm76,0v50.67h50.67V330Zm76,0v50.67h50.67V330Zm76,0v50.67h50.67V330Z" transform="translate(-22 -1.33)"/><path class="cls-1" d="M72.67,406v50.67h50.67V406Zm76,0v50.67h50.67V406Zm76,0v50.67h50.67V406Zm76,0v50.67h50.67V406Zm76,0v50.67h50.67V406Z" transform="translate(-22 -1.33)"/><rect class="cls-4" y="117.73" width="456" height="25.33"/></g><g id="Trident"><path class="cls-5" d="M33.69,459.16v-1.81a15.15,15.15,0,0,0,2.83-1.89Q72.16,417.78,107.73,380a21.48,21.48,0,0,0,1.81-2.89L39.62,323.6,193.49,76.3c2.46,4.36,9,178,7.44,183.07L161.66,233l-44.46,73.06,34.6,28.21c55.19-50.9,101.84-110,155.9-162l-28.29-31.08c1.87-.81,2.94-1.32,4-1.74q81.69-31.06,163.37-62.12c5.27-2,10.45-4.26,15.66-6.4H467c-.5,1.57-.93,3.17-1.52,4.7Q439.26,143.52,413,211.37c-5.43,14.1-10.58,28.31-16.07,43.06l-29.69-23.89C310.39,279.72,257.53,333.09,201.94,384l25.9,34.7,73.38-45.35-27.31-39.51,183.57,7.13c-3.22,6.29-228.87,146.95-244.57,153l-49.12-72L73.71,499c-7.41-6.8-14.49-12.89-21.08-19.46S40,466,33.69,459.16ZM223,473.86l188.4-116.28-1-1.64L215.42,461ZM391.2,225.15c13.28-37.56,33-71.48,44.34-109l-57,97.53Zm-207.25,5.9c-.78-30.83,2-60.72-1.39-90.57-1.38,6.46-2.29,12.93-3,19.43q-3.54,30.45-6.91,60.92c-.16,1.43.14,3.66,1.08,4.33C176.65,227.3,180,228.88,183.95,231.05Z" transform="translate(-22 -1.33)"/><path class="cls-6" d="M223,473.86,215.42,461l195-105.07,1,1.64Z" transform="translate(-22 -1.33)"/><path class="cls-6" d="M391.2,225.15l-12.67-11.47,57-97.53C424.22,153.67,404.48,187.59,391.2,225.15Z" transform="translate(-22 -1.33)"/><path class="cls-6" d="M183.95,231.05c-3.92-2.18-7.29-3.75-10.27-5.88-.94-.67-1.23-2.9-1.08-4.33q3.34-30.48,6.91-60.92c.75-6.5,1.66-13,3-19.43C186,170.33,183.17,200.22,183.95,231.05Z" transform="translate(-22 -1.33)"/></g></svg>